#!OML:ASF E:\emotionWalksFemale\Project 1\Capture day 1\Session 1\Female1.ASF
:FULLY-SPECIFIED
:DEGREES
903
root 9.40375 15.1544 -37.9169 -172.603 -187.988 -179.648
lowerback 6.44031 1.27536 2.73567
upperback -4.36756 2.03683 0.589234
thorax -8.14531 0.863031 -1.18543
lowerneck -3.46259 -6.33123 -8.25344
upperneck 10.2653 -8.57427 6.22573
head 4.2597 -4.25063 2.80059
rclavicle -1.7667e-014 -1.19271e-014
rhumerus -42.6415 7.02849 -81.0082
rradius 41.6049
rwrist 18.301
rhand -13.3398 -54.432
rfingers 7.12502
rthumb 12.7656 635.978
lclavicle -1.7667e-014 -1.19271e-014
lhumerus -46.9056 -0.563557 85.1082
lradius 34.7435
lwrist -8.68592
lhand -8.11505 -32.7135
lfingers 7.12502
lthumb 17.7981 -3.50798
rfemur -9.70998 10.8041 26.0005
rtibia 32.0253
rfoot -26.5398 -24.9671
rtoes -7.83347
lfemur -12.1594 -17.8997 -24.8987
ltibia 32.222
lfoot -33.252 19.0282
ltoes -31.8529
904
root 9.43466 15.1486 -37.9014 -172.708 -188.004 -179.48
lowerback 6.70629 1.2076 2.59092
upperback -4.17926 1.93859 0.633138
thorax -8.10689 0.825981 -1.04985
lowerneck -3.54702 -6.30297 -8.25571
upperneck 9.59683 -8.50698 6.27756
head 4.06785 -4.21402 2.82583
rclavicle -1.1865e-014 -1.31198e-014
rhumerus -42.2465 6.59056 -80.4464
rradius 41.1761
rwrist 17.8162
rhand -13.582 -54.1614
rfingers 7.12502
rthumb 12.5321 636.234
lclavicle -1.1865e-014 -1.31198e-014
lhumerus -46.7694 -0.0380547 85.2257
lradius 33.6265
lwrist -9.14717
lhand -6.5651 -32.8014
lfingers 7.12502
lthumb 19.289 -3.73799
rfemur -10.4837 9.13417 25.5656
rtibia 33.7814
rfoot -26.427 -23.5409
rtoes -8.86091
lfemur -11.6721 -17.7414 -25.2533
ltibia 31.7562
lfoot -33.0458 19.1519
ltoes -32.9693
905
root 9.46558 15.1433 -37.8816 -172.615 -187.964 -179.253
lowerback 7.16931 1.10718 2.50251
upperback -4.27666 1.8066 0.554554
thorax -8.4879 0.756891 -1.0784
lowerneck -3.57196 -6.26574 -8.12566
upperneck 9.17511 -8.44353 6.24451
head 3.93236 -4.17967 2.8034
rclavicle -1.85739e-014 1.59028e-015
rhumerus -42.2966 6.39627 -80.2522
rradius 40.6038
rwrist 16.9193
rhand -15.0447 -53.2636
rfingers 7.12502
rthumb 11.1216 637.051
lclavicle -1.85739e-014 1.59028e-015
lhumerus -47.1875 0.137182 85.3425
lradius 33.1111
lwrist -9.09749
lhand -6.44516 -33.9833
lfingers 7.12502
lthumb 19.4044 -4.93145
rfemur -11.6029 7.67419 25.0448
rtibia 35.8311
rfoot -26.1606 -22.1872
rtoes -9.92028
lfemur -11.3202 -17.6142 -25.6242
ltibia 31.1446
lfoot -32.4779 19.6256
ltoes -35.2049
906
root 9.4909 15.1364 -37.8661 -172.525 -187.997 -179.005
lowerback 7.29287 1.01455 2.13199
upperback -4.11703 1.64759 0.629966
thorax -8.40412 0.704904 -0.769478
lowerneck -3.69253 -6.22382 -8.16459
upperneck 8.45964 -8.35154 6.30526
head 3.73325 -4.13101 2.83826
rclavicle -1.93815e-014 -1.66979e-014
rhumerus -41.8012 5.93044 -79.4639
rradius 40.0039
rwrist 18.4197
rhand -12.4845 -54.4236
rfingers 7.12502
rthumb 13.5901 636.04
lclavicle -1.93815e-014 -1.66979e-014
lhumerus -47.1834 0.403501 85.6716
lradius 32.8687
lwrist -8.99761
lhand -5.33112 -33.73
lfingers 7.12502
lthumb 20.4752 -4.78967
rfemur -12.8743 6.55678 24.5494
rtibia 38.1303
rfoot -25.8773 -21.1006
rtoes -11.043
lfemur -10.9454 -17.4866 -25.975
ltibia 30.4195
lfoot -31.9729 19.6012
ltoes -35.6799
907
root 9.51566 15.1299 -37.8509 -172.475 -188.062 -178.766
lowerback 7.41418 0.946986 1.82293
upperback -3.93757 1.52325 0.642992
thorax -8.29169 0.663942 -0.565348
lowerneck -3.6385 -6.16928 -8.12887
upperneck 7.58534 -8.26383 6.47958
head 3.45965 -4.08098 2.90329
rclavicle 1.61513e-015 1.11319e-014
rhumerus -41.3475 5.48454 -78.8953
rradius 39.0851
rwrist 19.2217
rhand -11.0277 -54.6587
rfingers 7.12502
rthumb 14.9938 635.904
lclavicle 1.61513e-015 1.11319e-014
lhumerus -47.0078 0.446301 86.0111
lradius 32.6446
lwrist -9.02699
lhand -4.92592 -34.414
lfingers 7.12502
lthumb 20.8646 -5.51592
rfemur -14.2306 5.63575 24.0737
rtibia 40.632
rfoot -25.3777 -20.2631
rtoes -12.566
lfemur -10.473 -17.383 -26.337
ltibia 29.6339
lfoot -31.6432 19.1547
ltoes -33.9716
908
root 9.54294 15.1285 -37.8304 -172.429 -188.007 -178.531
lowerback 7.78802 0.928597 1.56657
upperback -3.92666 1.47529 0.602027
thorax -8.5044 0.651085 -0.465084
lowerneck -3.46564 -6.18551 -7.87622
upperneck 6.87127 -8.27474 6.35811
head 3.20161 -4.08769 2.84102
rclavicle -1.38901e-014 -2.62396e-014
rhumerus -41.1648 5.04651 -78.4134
rradius 38.0995
rwrist 19.7955
rhand -9.32459 -55.2213
rfingers 7.12502
rthumb 16.634 635.471
lclavicle -1.38901e-014 -2.62396e-014
lhumerus -47.0603 0.0293023 86.6313
lradius 32.9069
lwrist -8.41157
lhand -4.29779 -33.869
lfingers 7.12502
lthumb 21.468 -5.03861
rfemur -15.6288 4.79832 23.5991
rtibia 43.3028
rfoot -24.7065 -19.4519
rtoes -13.9975
lfemur -9.92847 -17.2639 -26.7589
ltibia 28.8377
lfoot -31.594 19.132
ltoes -32.3191
